<svg width="757" height="131" viewBox="0 0 757 131" fill="none" xmlns="http://www.w3.org/2000/svg">
<path d="M0 59.616C0 52.3741 1.41926 45.9513 4.25779 40.3475C7.18233 34.7437 11.0961 30.433 15.999 27.4156C20.9879 24.3982 26.5359 22.8894 32.643 22.8894C37.976 22.8894 42.6209 23.9671 46.5776 26.1224C50.6204 28.2777 53.846 30.9934 56.2544 34.2695V24.0533H74.4468V95.6959H56.2544V85.2211C53.932 88.5834 50.7064 91.3853 46.5776 93.6269C42.5349 95.7822 37.847 96.8598 32.514 96.8598C26.4929 96.8598 20.9879 95.308 15.999 92.2043C11.0961 89.1007 7.18233 84.747 4.25779 79.1431C1.41926 73.4531 0 66.9441 0 59.616ZM56.2544 59.8746C56.2544 55.4778 55.3942 51.7275 53.6739 48.6239C51.9536 45.434 49.6312 43.0201 46.7066 41.382C43.7821 39.6578 40.6425 38.7957 37.2879 38.7957C33.9333 38.7957 30.8367 39.6147 27.9982 41.2527C25.1597 42.8908 22.8372 45.3047 21.0309 48.4946C19.3106 51.5982 18.4504 55.3054 18.4504 59.616C18.4504 63.9266 19.3106 67.72 21.0309 70.9961C22.8372 74.1859 25.1597 76.643 27.9982 78.3672C30.9227 80.0915 34.0193 80.9536 37.2879 80.9536C40.6425 80.9536 43.7821 80.1346 46.7066 78.4965C49.6312 76.7723 51.9536 74.3583 53.6739 71.2547C55.3942 68.0648 56.2544 64.2715 56.2544 59.8746Z" fill="white"/>
<path d="M108.862 35.1747C111.184 31.3814 114.195 28.407 117.894 26.2517C121.678 24.0964 125.979 23.0188 130.796 23.0188V42.0286H126.022C120.345 42.0286 116.044 43.3649 113.12 46.0375C110.281 48.7101 108.862 53.3656 108.862 60.0039V95.6959H90.7985V24.0533H108.862V35.1747Z" fill="white"/>
<path d="M208.12 58.3228C208.12 60.9092 207.947 63.2369 207.603 65.306H155.349C155.779 70.4788 157.585 74.5308 160.768 77.462C163.95 80.3932 167.864 81.8588 172.509 81.8588C179.218 81.8588 183.992 78.9707 186.831 73.1945H206.313C204.249 80.0915 200.292 85.7815 194.443 90.2646C188.594 94.6614 181.412 96.8598 172.896 96.8598C166.015 96.8598 159.822 95.3511 154.317 92.3337C148.898 89.23 144.64 84.8763 141.543 79.2725C138.533 73.6686 137.027 67.2027 137.027 59.8746C137.027 52.4603 138.533 45.9513 141.543 40.3475C144.554 34.7437 148.769 30.433 154.188 27.4156C159.607 24.3982 165.843 22.8894 172.896 22.8894C179.691 22.8894 185.755 24.355 191.088 27.2863C196.507 30.2175 200.679 34.3988 203.604 39.8302C206.614 45.1754 208.12 51.3396 208.12 58.3228ZM189.411 53.15C189.325 48.4946 187.648 44.7874 184.379 42.0286C181.111 39.1836 177.111 37.7611 172.38 37.7611C167.907 37.7611 164.122 39.1405 161.026 41.8993C158.015 44.5719 156.166 48.3221 155.478 53.15H189.411Z" fill="white"/>
<path d="M259.495 95.6959L244.786 73.4531L231.755 95.6959H212.401L235.755 59.7453L212.143 24.0533H232.529L247.109 46.1668L260.269 24.0533H279.623L256.141 59.7453L279.881 95.6959H259.495Z" fill="white"/>
<path d="M345.853 22.8894C351.186 22.8894 355.874 23.9671 359.917 26.1224C363.96 28.1915 367.142 30.9072 369.465 34.2695V24.0533H387.657V96.2132C387.657 102.852 386.324 108.757 383.657 113.93C380.991 119.189 376.991 123.327 371.658 126.345C366.325 129.448 359.874 131 352.305 131C342.155 131 333.811 128.629 327.274 123.887C320.823 119.146 317.167 112.68 316.307 104.49H334.241C335.188 107.766 337.209 110.352 340.305 112.249C343.488 114.232 347.316 115.223 351.789 115.223C357.036 115.223 361.293 113.628 364.562 110.438C367.831 107.335 369.465 102.593 369.465 96.2132V85.0918C367.142 88.4541 363.917 91.256 359.788 93.4975C355.745 95.7391 351.1 96.8598 345.853 96.8598C339.832 96.8598 334.327 95.308 329.338 92.2043C324.349 89.1007 320.393 84.747 317.468 79.1431C314.63 73.4531 313.21 66.9441 313.21 59.616C313.21 52.3741 314.63 45.9513 317.468 40.3475C320.393 34.7437 324.307 30.433 329.209 27.4156C334.198 24.3982 339.746 22.8894 345.853 22.8894ZM369.465 59.8746C369.465 55.4778 368.605 51.7275 366.884 48.6239C365.164 45.434 362.842 43.0201 359.917 41.382C356.993 39.6578 353.853 38.7957 350.498 38.7957C347.144 38.7957 344.047 39.6147 341.209 41.2527C338.37 42.8908 336.048 45.3047 334.241 48.4946C332.521 51.5982 331.661 55.3054 331.661 59.616C331.661 63.9266 332.521 67.72 334.241 70.9961C336.048 74.1859 338.37 76.643 341.209 78.3672C344.133 80.0915 347.23 80.9536 350.498 80.9536C353.853 80.9536 356.993 80.1346 359.917 78.4965C362.842 76.7723 365.164 74.3583 366.884 71.2547C368.605 68.0648 369.465 64.2715 369.465 59.8746Z" fill="white"/>
<path d="M399.364 59.616C399.364 52.3741 400.783 45.9513 403.622 40.3475C406.546 34.7437 410.46 30.433 415.363 27.4156C420.352 24.3982 425.9 22.8894 432.007 22.8894C437.34 22.8894 441.985 23.9671 445.942 26.1224C449.984 28.2777 453.21 30.9934 455.619 34.2695V24.0533H473.811V95.6959H455.619V85.2211C453.296 88.5834 450.07 91.3853 445.942 93.6269C441.899 95.7822 437.211 96.8598 431.878 96.8598C425.857 96.8598 420.352 95.308 415.363 92.2043C410.46 89.1007 406.546 84.747 403.622 79.1431C400.783 73.4531 399.364 66.9441 399.364 59.616ZM455.619 59.8746C455.619 55.4778 454.758 51.7275 453.038 48.6239C451.318 45.434 448.995 43.0201 446.071 41.382C443.146 39.6578 440.007 38.7957 436.652 38.7957C433.297 38.7957 430.201 39.6147 427.362 41.2527C424.524 42.8908 422.201 45.3047 420.395 48.4946C418.675 51.5982 417.815 55.3054 417.815 59.616C417.815 63.9266 418.675 67.72 420.395 70.9961C422.201 74.1859 424.524 76.643 427.362 78.3672C430.287 80.0915 433.383 80.9536 436.652 80.9536C440.007 80.9536 443.146 80.1346 446.071 78.4965C448.995 76.7723 451.318 74.3583 453.038 71.2547C454.758 68.0648 455.619 64.2715 455.619 59.8746Z" fill="white"/>
<path d="M508.226 0V95.6959H490.163V0H508.226Z" fill="white"/>
<path d="M542.846 0V95.6959H524.782V0H542.846Z" fill="white"/>
<path d="M625.849 58.3228C625.849 60.9092 625.677 63.2369 625.333 65.306H573.079C573.509 70.4788 575.315 74.5308 578.498 77.462C581.68 80.3932 585.594 81.8588 590.239 81.8588C596.948 81.8588 601.722 78.9707 604.56 73.1945H624.043C621.979 80.0915 618.022 85.7815 612.173 90.2646C606.324 94.6614 599.141 96.8598 590.626 96.8598C583.745 96.8598 577.551 95.3511 572.046 92.3337C566.627 89.23 562.37 84.8763 559.273 79.2725C556.262 73.6686 554.757 67.2027 554.757 59.8746C554.757 52.4603 556.262 45.9513 559.273 40.3475C562.284 34.7437 566.498 30.433 571.917 27.4156C577.336 24.3982 583.572 22.8894 590.626 22.8894C597.421 22.8894 603.485 24.355 608.818 27.2863C614.237 30.2175 618.409 34.3988 621.333 39.8302C624.344 45.1754 625.849 51.3396 625.849 58.3228ZM607.141 53.15C607.055 48.4946 605.378 44.7874 602.109 42.0286C598.84 39.1836 594.841 37.7611 590.11 37.7611C585.637 37.7611 581.852 39.1405 578.756 41.8993C575.745 44.5719 573.896 48.3221 573.208 53.15H607.141Z" fill="white"/>
<path d="M655.807 35.1747C658.13 31.3814 661.14 28.407 664.839 26.2517C668.623 24.0964 672.924 23.0188 677.741 23.0188V42.0286H672.967C667.29 42.0286 662.989 43.3649 660.065 46.0375C657.226 48.7101 655.807 53.3656 655.807 60.0039V95.6959H637.744V24.0533H655.807V35.1747Z" fill="white"/>
<path d="M757 24.0533L712.745 129.577H693.52L709.003 93.8855L680.36 24.0533H700.617L719.067 74.0997L737.775 24.0533H757Z" fill="white"/>
<circle cx="297" cy="87" r="9" fill="white"/>
</svg>
