<svg width="282" height="49" viewBox="0 0 282 49" fill="none" xmlns="http://www.w3.org/2000/svg">
<path d="M0 22.2991C0 19.5903 0.528708 17.1879 1.58612 15.0918C2.67558 12.9957 4.13354 11.3833 5.95998 10.2547C7.81847 9.12603 9.88524 8.5617 12.1603 8.5617C14.1469 8.5617 15.8773 8.96479 17.3512 9.77098C18.8573 10.5772 20.0589 11.593 20.9561 12.8184V8.99704H27.7331V35.7947H20.9561V31.8766C20.0909 33.1343 18.8893 34.1823 17.3512 35.0207C15.8452 35.8269 14.0989 36.23 12.1122 36.23C9.86922 36.23 7.81847 35.6496 5.95998 34.4886C4.13354 33.3277 2.67558 31.6992 1.58612 29.6032C0.528708 27.4748 0 25.0401 0 22.2991ZM20.9561 22.3959C20.9561 20.7512 20.6356 19.3485 19.9948 18.1876C19.3539 16.9944 18.4888 16.0915 17.3993 15.4788C16.3098 14.8338 15.1403 14.5114 13.8906 14.5114C12.6409 14.5114 11.4874 14.8177 10.43 15.4304C9.37255 16.0431 8.50739 16.946 7.83449 18.1392C7.19363 19.3001 6.8732 20.6867 6.8732 22.2991C6.8732 23.9115 7.19363 25.3304 7.83449 26.5558C8.50739 27.7489 9.37255 28.668 10.43 29.3129C11.5194 29.9579 12.673 30.2804 13.8906 30.2804C15.1403 30.2804 16.3098 29.974 17.3993 29.3613C18.4888 28.7164 19.3539 27.8134 19.9948 26.6525C20.6356 25.4594 20.9561 24.0405 20.9561 22.3959Z" fill="white"/>
<path d="M40.5536 13.157C41.4187 11.7381 42.5402 10.6255 43.9181 9.81935C45.328 9.01316 46.9301 8.61007 48.7245 8.61007V15.7206H46.9461C44.8313 15.7206 43.2291 16.2205 42.1397 17.2201C41.0823 18.2198 40.5536 19.9612 40.5536 22.4442V35.7947H33.8245V8.99704H40.5536V13.157Z" fill="white"/>
<path d="M77.5293 21.8154C77.5293 22.7828 77.4652 23.6535 77.3371 24.4274H57.871C58.0312 26.3623 58.7041 27.8779 59.8897 28.9743C61.0753 30.0707 62.5332 30.619 64.2636 30.619C66.7629 30.619 68.5413 29.5387 69.5987 27.3781H76.8564C76.0874 29.9579 74.6134 32.0862 72.4345 33.7631C70.2556 35.4077 67.58 36.23 64.4078 36.23C61.8443 36.23 59.5372 35.6657 57.4865 34.537C55.4678 33.3761 53.8817 31.7476 52.7281 29.6515C51.6066 27.5554 51.0459 25.1369 51.0459 22.3959C51.0459 19.6226 51.6066 17.1879 52.7281 15.0918C53.8496 12.9957 55.4197 11.3833 57.4384 10.2547C59.4571 9.12603 61.7802 8.5617 64.4078 8.5617C66.9391 8.5617 69.1982 9.1099 71.1848 10.2063C73.2035 11.3027 74.7576 12.8667 75.8471 14.8983C76.9686 16.8977 77.5293 19.2034 77.5293 21.8154ZM70.56 19.8806C70.528 18.1392 69.9031 16.7526 68.6855 15.7206C67.4678 14.6565 65.9779 14.1244 64.2155 14.1244C62.5493 14.1244 61.1394 14.6403 59.9858 15.6723C58.8643 16.6719 58.1754 18.0747 57.9191 19.8806H70.56Z" fill="white"/>
<path d="M96.668 35.7947L91.1886 27.4748L86.3341 35.7947H79.1245L87.8241 22.3475L79.0283 8.99704H86.6225L92.0538 17.2685L96.9563 8.99704H104.166L95.4183 22.3475L104.262 35.7947H96.668Z" fill="white"/>
<path d="M128.838 8.5617C130.825 8.5617 132.571 8.96479 134.077 9.77098C135.583 10.5449 136.769 11.5607 137.634 12.8184V8.99704H144.411V35.9882C144.411 38.4712 143.915 40.6802 142.921 42.615C141.928 44.5821 140.438 46.13 138.451 47.2586C136.465 48.4195 134.061 49 131.242 49C127.461 49 124.352 48.1132 121.917 46.3396C119.514 44.566 118.152 42.1474 117.832 39.0839H124.513C124.865 40.3093 125.618 41.2767 126.772 41.9862C127.957 42.7279 129.383 43.0987 131.049 43.0987C133.004 43.0987 134.59 42.5021 135.808 41.309C137.025 40.1481 137.634 38.3745 137.634 35.9882V31.8282C136.769 33.0859 135.567 34.1339 134.029 34.9724C132.523 35.8108 130.793 36.23 128.838 36.23C126.595 36.23 124.545 35.6496 122.686 34.4886C120.828 33.3277 119.354 31.6992 118.264 29.6032C117.207 27.4748 116.678 25.0401 116.678 22.2991C116.678 19.5903 117.207 17.1879 118.264 15.0918C119.354 12.9957 120.812 11.3833 122.638 10.2547C124.497 9.12603 126.563 8.5617 128.838 8.5617ZM137.634 22.3959C137.634 20.7512 137.314 19.3485 136.673 18.1876C136.032 16.9944 135.167 16.0915 134.077 15.4788C132.988 14.8338 131.818 14.5114 130.569 14.5114C129.319 14.5114 128.166 14.8177 127.108 15.4304C126.051 16.0431 125.186 16.946 124.513 18.1392C123.872 19.3001 123.551 20.6867 123.551 22.2991C123.551 23.9115 123.872 25.3304 124.513 26.5558C125.186 27.7489 126.051 28.668 127.108 29.3129C128.198 29.9579 129.351 30.2804 130.569 30.2804C131.818 30.2804 132.988 29.974 134.077 29.3613C135.167 28.7164 136.032 27.8134 136.673 26.6525C137.314 25.4594 137.634 24.0405 137.634 22.3959Z" fill="white"/>
<path d="M148.772 22.2991C148.772 19.5903 149.301 17.1879 150.358 15.0918C151.448 12.9957 152.906 11.3833 154.732 10.2547C156.591 9.12603 158.658 8.5617 160.933 8.5617C162.919 8.5617 164.65 8.96479 166.124 9.77098C167.63 10.5772 168.831 11.593 169.728 12.8184V8.99704H176.505V35.7947H169.728V31.8766C168.863 33.1343 167.662 34.1823 166.124 35.0207C164.618 35.8269 162.871 36.23 160.885 36.23C158.642 36.23 156.591 35.6496 154.732 34.4886C152.906 33.3277 151.448 31.6992 150.358 29.6032C149.301 27.4748 148.772 25.0401 148.772 22.2991ZM169.728 22.3959C169.728 20.7512 169.408 19.3485 168.767 18.1876C168.126 16.9944 167.261 16.0915 166.172 15.4788C165.082 14.8338 163.913 14.5114 162.663 14.5114C161.413 14.5114 160.26 14.8177 159.202 15.4304C158.145 16.0431 157.28 16.946 156.607 18.1392C155.966 19.3001 155.646 20.6867 155.646 22.2991C155.646 23.9115 155.966 25.3304 156.607 26.5558C157.28 27.7489 158.145 28.668 159.202 29.3129C160.292 29.9579 161.445 30.2804 162.663 30.2804C163.913 30.2804 165.082 29.974 166.172 29.3613C167.261 28.7164 168.126 27.8134 168.767 26.6525C169.408 25.4594 169.728 24.0405 169.728 22.3959Z" fill="white"/>
<path d="M189.326 0V35.7947H182.597V0H189.326Z" fill="white"/>
<path d="M202.223 0V35.7947H195.494V0H202.223Z" fill="white"/>
<path d="M233.143 21.8154C233.143 22.7828 233.079 23.6535 232.951 24.4274H213.485C213.645 26.3623 214.318 27.8779 215.504 28.9743C216.689 30.0707 218.147 30.619 219.878 30.619C222.377 30.619 224.155 29.5387 225.213 27.3781H232.47C231.701 29.9579 230.227 32.0862 228.049 33.7631C225.87 35.4077 223.194 36.23 220.022 36.23C217.458 36.23 215.151 35.6657 213.1 34.537C211.082 33.3761 209.496 31.7476 208.342 29.6515C207.221 27.5554 206.66 25.1369 206.66 22.3959C206.66 19.6226 207.221 17.1879 208.342 15.0918C209.464 12.9957 211.034 11.3833 213.052 10.2547C215.071 9.12603 217.394 8.5617 220.022 8.5617C222.553 8.5617 224.812 9.1099 226.799 10.2063C228.818 11.3027 230.372 12.8667 231.461 14.8983C232.583 16.8977 233.143 19.2034 233.143 21.8154ZM226.174 19.8806C226.142 18.1392 225.517 16.7526 224.299 15.7206C223.082 14.6565 221.592 14.1244 219.83 14.1244C218.163 14.1244 216.753 14.6403 215.6 15.6723C214.478 16.6719 213.789 18.0747 213.533 19.8806H226.174Z" fill="white"/>
<path d="M244.303 13.157C245.168 11.7381 246.29 10.6255 247.668 9.81935C249.078 9.01316 250.68 8.61007 252.474 8.61007V15.7206H250.696C248.581 15.7206 246.979 16.2205 245.889 17.2201C244.832 18.2198 244.303 19.9612 244.303 22.4442V35.7947H237.574V8.99704H244.303V13.157Z" fill="white"/>
<path d="M282 8.99704L265.514 48.4679H258.352L264.12 35.1175L253.45 8.99704H260.996L267.869 27.7167L274.838 8.99704H282Z" fill="white"/>
</svg>
