<?xml version="1.0" standalone="no"?>
<!DOCTYPE svg PUBLIC "-//W3C//DTD SVG 20010904//EN"
 "http://www.w3.org/TR/2001/REC-SVG-20010904/DTD/svg10.dtd">
<svg version="1.0" xmlns="http://www.w3.org/2000/svg"
 width="1050.000000pt" height="1050.000000pt" viewBox="0 0 1050.000000 1050.000000"
 preserveAspectRatio="xMidYMid meet">
<metadata>
Created by potrace 1.14, written by Peter Selinger 2001-2017
</metadata>
<g transform="translate(0.000000,1050.000000) scale(0.100000,-0.100000)"
fill="#000000" stroke="none">
<path d="M4910 10490 c-413 -30 -795 -99 -1166 -210 -1401 -422 -2556 -1400
-3204 -2715 -293 -595 -458 -1184 -522 -1870 -19 -206 -16 -727 5 -941 68
-673 244 -1281 542 -1869 505 -1000 1307 -1803 2310 -2315 995 -507 2135 -681
3248 -494 1072 180 2069 695 2841 1470 797 798 1308 1812 1475 2924 40 270 54
471 54 790 0 316 -12 491 -53 769 -164 1101 -674 2117 -1463 2914 -867 876
-1985 1408 -3217 1532 -186 19 -676 27 -850 15z m440 -2719 c281 -57 514 -184
728 -397 l122 -121 0 243 0 244 449 0 449 0 4 -47 c2 -27 4 -824 3 -1773 l0
-1725 -450 0 -450 0 -5 254 -5 254 -30 -39 c-177 -235 -490 -428 -805 -495
-144 -31 -473 -34 -625 -5 -569 106 -1030 527 -1219 1113 -170 529 -134 1166
93 1628 248 504 679 817 1217 885 114 14 415 4 524 -19z m1750 -4726 l0 -455
-1850 0 -1850 0 0 455 0 455 1850 0 1850 0 0 -455z"/>
<path d="M5081 6995 c-269 -61 -469 -204 -609 -436 -90 -149 -131 -300 -139
-516 -7 -172 6 -290 43 -421 121 -420 473 -692 892 -692 441 1 802 301 903
749 25 113 35 329 20 451 -53 428 -297 733 -676 845 -113 34 -330 44 -434 20z"/>
</g>
</svg>
